<?xml version="1.0" standalone="no"?>
<!DOCTYPE svg PUBLIC "-//W3C//DTD SVG 20010904//EN"
 "http://www.w3.org/TR/2001/REC-SVG-20010904/DTD/svg10.dtd">
<svg version="1.0" xmlns="http://www.w3.org/2000/svg"
 width="512.000000pt" height="512.000000pt" viewBox="0 0 512.000000 512.000000"
 preserveAspectRatio="xMidYMid meet">

<g transform="translate(0.000000,512.000000) scale(0.100000,-0.100000)"
fill="#000000" stroke="none">
<path d="M2560 2596 c0 -1010 3 -1836 6 -1836 3 0 38 17 77 37 126 67 233 194
295 353 12 30 47 136 77 235 65 212 84 262 141 375 74 144 187 278 326 386
l57 45 56 -46 c183 -149 428 -185 616 -90 115 59 172 125 290 341 110 201 149
254 319 430 219 225 269 311 290 497 42 369 -211 739 -593 865 -128 43 -226
55 -377 49 -154 -7 -284 -38 -407 -98 -48 -24 -92 -43 -98 -42 -5 0 -39 22
-75 49 -85 64 -243 145 -359 184 -161 54 -300 78 -553 95 l-88 6 0 -1835z"/>
<path d="M2065 3314 c-45 -23 -66 -45 -86 -89 -69 -149 75 -308 226 -251 75
29 117 93 116 178 0 53 -17 91 -58 130 -52 49 -138 63 -198 32z"/>
</g>
</svg>
